<svg data-v-6805eed4="" version="1.0" xmlns="http://www.w3.org/2000/svg" xmlns:xlink="http://www.w3.org/1999/xlink" width="100%" height="100%" viewBox="0 0 340.000000 250.000000" preserveAspectRatio="xMidYMid meet" color-interpolation-filters="sRGB" style="margin: auto;">
    <rect data-v-6805eed4="" x="0" y="0" width="100%" height="100%" fill="#ffffff" fill-opacity="0" class="background"></rect>
    <rect data-v-6805eed4="" x="0" y="0" width="100%" height="100%" fill="url(#watermark)" fill-opacity="1" class="watermarklayer"></rect>
    <g data-v-6805eed4="" class="iconmbgsvg" transform="translate(83.16000366210938,62.10163879394531)">
        <g fill="#000000" hollow-target="textNormalTran">
            <g opacity="1" transform="matrix(0.7546946718750001,0,0,0.7546946718750001,44.38842104492188,15.429303134176017)">
                <g>
                    <rect fill="#000000" fill-opacity="0" stroke-width="2" x="0" y="0" width="112.5" height="125.79671251257966" class="image-rect"></rect>
                    <svg x="0" y="0" width="112.5" height="125.79671251257966" filtersec="colorsb6136527951" class="image-svg-svg primary" style="overflow: visible;">
                        <svg xmlns="http://www.w3.org/2000/svg" viewBox="0 0 89.43000030517578 100">
                            <path fill="#1a2237" d="M49.95 42.42l12.52-7.15V7.24L49.95 0v42.42zM70.02 11.6v19.35l12.52-7.15v-4.97L70.02 11.6zM26.94 35.27l12.52 7.15V0L26.94 7.24v28.03zM6.87 23.8l12.52 7.15V11.6L6.87 18.83v4.97z"></path>
                            <path fill="#7f4bdb" opacity=".6" d="M44.72 100V48.51l44.71 25.56L44.72 100z"></path>
                            <path fill="#7f4bdb" opacity=".8" d="M44.72 100V48.51L0 74.07 44.72 100z"></path>
                            <path fill="#7f4bdb" d="M0 74.07V22.96l44.72 25.55L0 74.07z"></path>
                            <path fill="#7f4bdb" opacity=".4" d="M89.42 74.06v-51.1L44.71 48.51l44.71 25.55z"></path>
                        </svg>
                    </svg>
                </g>
            </g>
            <g transform="translate(0,38.843360900878906)">
                <g data-gra="path-name" fill-rule="" class="tp-name" opacity="1" transform="matrix(0.29468842187500005,0,0,0.29468842187500005,61.24925486144686,16.966270227040887)">
                    <g transform="scale(1)">
                        <g>
                            <path d="M37.11-6.57L37.11 0 7.13 0Q6.42 0 5.81-0.25 5.21-0.51 4.77-0.95 4.32-1.39 4.07-2 3.82-2.6 3.82-3.31L3.82-3.31 3.82-36.25 10.39-36.25 10.39-6.57 37.11-6.57ZM69.8-27.33L69.8-3.31Q69.8-2.6 69.55-2 69.29-1.39 68.85-0.95 68.41-0.51 67.82-0.25 67.22 0 66.54 0L66.54 0 51.67 0Q50.46 0 49.08-0.28 47.71-0.56 46.37-1.18 45.03-1.79 43.77-2.74 42.52-3.69 41.59-5.04 40.65-6.4 40.08-8.17 39.51-9.94 39.51-12.16L39.51-12.16 39.51-27.33 46.09-27.33 46.09-12.16Q46.09-10.87 46.53-9.85 46.97-8.82 47.73-8.09 48.49-7.36 49.51-6.96 50.54-6.57 51.72-6.57L51.72-6.57 63.23-6.57 63.23-27.33 69.8-27.33ZM106.26-15.17L106.26 0 99.68 0 99.68-15.17Q99.68-16.46 99.24-17.48 98.8-18.51 98.04-19.24 97.28-19.97 96.26-20.36 95.23-20.76 94.04-20.76L94.04-20.76 82.54-20.76 82.54 0 75.97 0 75.97-24.07Q75.97-24.75 76.22-25.34 76.47-25.94 76.93-26.38 77.38-26.82 77.99-27.08 78.6-27.33 79.28-27.33L79.28-27.33 94.1-27.33Q95.33-27.33 96.71-27.05 98.09-26.77 99.44-26.15 100.79-25.53 102.02-24.59 103.25-23.64 104.2-22.29 105.14-20.93 105.7-19.16 106.26-17.39 106.26-15.17L106.26-15.17ZM141.75-18.13L141.75 2.63Q141.75 4.32 141.32 5.68 140.89 7.03 140.18 8.05 139.47 9.08 138.54 9.8 137.6 10.52 136.58 10.97 135.56 11.43 134.51 11.64 133.46 11.86 132.52 11.86L132.52 11.86 120.67 11.86 120.67 5.28 132.52 5.28Q133.86 5.28 134.52 4.6 135.18 3.92 135.18 2.63L135.18 2.63 135.18-18.13Q135.18-19.42 134.52-20.09 133.86-20.76 132.52-20.76L132.52-20.76 120.67-20.76Q119.45-20.76 118.74-20.01 118.04-19.26 118.04-18.13L118.04-18.13 118.04-9.23Q118.04-7.94 118.72-7.26 119.4-6.57 120.72-6.57L120.72-6.57 132.52-6.57 132.52 0 120.67 0Q119.73 0 118.69-0.21 117.66-0.43 116.63-0.88 115.61-1.34 114.67-2.06 113.74-2.78 113.03-3.8 112.32-4.83 111.89-6.18 111.46-7.53 111.46-9.23L111.46-9.23 111.46-18.13Q111.46-19.06 111.68-20.1 111.89-21.13 112.35-22.16 112.8-23.18 113.52-24.12 114.24-25.05 115.27-25.76 116.29-26.47 117.63-26.9 118.97-27.33 120.67-27.33L120.67-27.33 132.52-27.33Q133.46-27.33 134.51-27.11 135.56-26.9 136.58-26.44 137.6-25.99 138.54-25.27 139.47-24.55 140.18-23.52 140.89-22.5 141.32-21.16 141.75-19.82 141.75-18.13L141.75-18.13ZM177.5-18.13L177.5-9.23Q177.5-7.53 177.07-6.18 176.64-4.83 175.93-3.8 175.22-2.78 174.29-2.06 173.35-1.34 172.33-0.88 171.3-0.43 170.25-0.21 169.21 0 168.27 0L168.27 0 156.41 0Q155.05 0 153.43-0.48 151.81-0.96 150.43-2.06 149.06-3.16 148.13-4.92 147.21-6.67 147.21-9.23L147.21-9.23 147.21-18.13Q147.21-20.65 148.13-22.41 149.06-24.17 150.43-25.27 151.81-26.37 153.43-26.85 155.05-27.33 156.41-27.33L156.41-27.33 168.27-27.33Q170.8-27.33 172.57-26.42 174.34-25.51 175.42-24.13 176.51-22.75 177-21.13 177.5-19.52 177.5-18.13L177.5-18.13ZM170.92-9.23L170.92-18.08Q170.92-19.44 170.24-20.1 169.56-20.76 168.27-20.76L168.27-20.76 156.46-20.76Q155.15-20.76 154.47-20.09 153.78-19.42 153.78-18.13L153.78-18.13 153.78-9.23Q153.78-7.94 154.47-7.26 155.15-6.57 156.46-6.57L156.46-6.57 168.27-6.57Q169.61-6.57 170.27-7.26 170.92-7.94 170.92-9.23L170.92-9.23Z" transform="translate(-3.819999933242798, 36.25)"></path>
                        </g>
                    </g>
                </g>
            </g>
        </g>
    </g>
    <defs v-gra="od"></defs>
</svg>